name rise49.5252peak65.1548fall88.8305.mot
datacolumns 19
datarows 21
range 21.59158200000000 21.62491800000000
endheader
time	ground_force1_vx	ground_force1_vy	ground_force1_vz	ground_force1_px	ground_force1_py	ground_force1_pz	ground_force2_vx	ground_force2_vy	ground_force2_vz	ground_force2_px	ground_force2_py	ground_force2_pz	ground_torque1_x	ground_torque1_y	ground_torque1_z	ground_torque2_x	ground_torque2_y	ground_torque2_z	
21.59158200000000	-2.50708200000000	707.98912900000005	38.42011900000000	0.24669600000000	0.00000000000000	0.10213000000000	0.00000000000000	0.00000000000000	0.00000000000000	0.00000000000000	0.00000000000000	0.00000000000000	0.00000000000000	18.95084000000000	0.00000000000000	0.00000000000000	0.00000000000000	0.00000000000000	
21.59324800000000	-2.85617800000000	709.66793299999995	38.49068700000000	0.24655100000000	0.00000000000000	0.10212500000000	0.00000000000000	0.00000000000000	0.00000000000000	0.00000000000000	0.00000000000000	0.00000000000000	0.00000000000000	19.07186600000000	0.00000000000000	0.00000000000000	0.00000000000000	0.00000000000000	
21.59490900000000	-3.20572400000000	711.38602900000001	38.56232800000000	0.24642300000000	0.00000000000000	0.10211800000000	0.00000000000000	0.00000000000000	0.00000000000000	0.00000000000000	0.00000000000000	0.00000000000000	0.00000000000000	19.19470500000000	0.00000000000000	0.00000000000000	0.00000000000000	0.00000000000000	
21.59657900000000	-3.55619200000000	713.14047600000004	38.63485400000000	0.24630700000000	0.00000000000000	0.10211000000000	0.00000000000000	0.00000000000000	0.00000000000000	0.00000000000000	0.00000000000000	0.00000000000000	0.00000000000000	19.31915000000000	0.00000000000000	0.00000000000000	0.00000000000000	0.00000000000000	
21.59824700000000	-3.90804300000000	714.92841399999998	38.70809600000000	0.24620100000000	0.00000000000000	0.10210000000000	0.00000000000000	0.00000000000000	0.00000000000000	0.00000000000000	0.00000000000000	0.00000000000000	0.00000000000000	19.44499900000000	0.00000000000000	0.00000000000000	0.00000000000000	0.00000000000000	
21.59991700000000	-4.26172000000000	716.74705800000004	38.78190300000000	0.24609900000000	0.00000000000000	0.10208800000000	0.00000000000000	0.00000000000000	0.00000000000000	0.00000000000000	0.00000000000000	0.00000000000000	0.00000000000000	19.57205900000000	0.00000000000000	0.00000000000000	0.00000000000000	0.00000000000000	
21.60157700000000	-4.61764500000000	718.59371199999998	38.85614300000000	0.24599800000000	0.00000000000000	0.10207600000000	0.00000000000000	0.00000000000000	0.00000000000000	0.00000000000000	0.00000000000000	0.00000000000000	0.00000000000000	19.70014200000000	0.00000000000000	0.00000000000000	0.00000000000000	0.00000000000000	
21.60324900000000	-4.97622300000000	720.46576400000004	38.93069900000000	0.24589400000000	0.00000000000000	0.10206400000000	0.00000000000000	0.00000000000000	0.00000000000000	0.00000000000000	0.00000000000000	0.00000000000000	0.00000000000000	19.82906900000000	0.00000000000000	0.00000000000000	0.00000000000000	0.00000000000000	
21.60491800000000	-5.33783400000000	722.36069299999997	39.00547800000000	0.24578300000000	0.00000000000000	0.10205000000000	0.00000000000000	0.00000000000000	0.00000000000000	0.00000000000000	0.00000000000000	0.00000000000000	0.00000000000000	19.95866900000000	0.00000000000000	0.00000000000000	0.00000000000000	0.00000000000000	
21.60658100000000	-5.70283200000000	724.27606700000001	39.08040200000000	0.24566100000000	0.00000000000000	0.10203700000000	0.00000000000000	0.00000000000000	0.00000000000000	0.00000000000000	0.00000000000000	0.00000000000000	0.00000000000000	20.08877900000000	0.00000000000000	0.00000000000000	0.00000000000000	0.00000000000000	
21.60824900000000	-6.07154600000000	726.20954800000004	39.15541200000000	0.24552400000000	0.00000000000000	0.10202400000000	0.00000000000000	0.00000000000000	0.00000000000000	0.00000000000000	0.00000000000000	0.00000000000000	0.00000000000000	20.21924300000000	0.00000000000000	0.00000000000000	0.00000000000000	0.00000000000000	
21.60991700000000	-6.44427500000000	728.15888900000004	39.23046900000000	0.24537000000000	0.00000000000000	0.10201100000000	0.00000000000000	0.00000000000000	0.00000000000000	0.00000000000000	0.00000000000000	0.00000000000000	0.00000000000000	20.34991600000000	0.00000000000000	0.00000000000000	0.00000000000000	0.00000000000000	
21.61157600000000	-6.82129000000000	730.12193300000001	39.30555100000000	0.24519400000000	0.00000000000000	0.10199800000000	0.00000000000000	0.00000000000000	0.00000000000000	0.00000000000000	0.00000000000000	0.00000000000000	0.00000000000000	20.48066000000000	0.00000000000000	0.00000000000000	0.00000000000000	0.00000000000000	
21.61324200000000	-7.20282700000000	732.09661700000004	39.38065300000000	0.24499400000000	0.00000000000000	0.10198600000000	0.00000000000000	0.00000000000000	0.00000000000000	0.00000000000000	0.00000000000000	0.00000000000000	0.00000000000000	20.61134600000000	0.00000000000000	0.00000000000000	0.00000000000000	0.00000000000000	
21.61491700000000	-7.58909000000000	734.08096499999999	39.45579000000000	0.24476700000000	0.00000000000000	0.10197500000000	0.00000000000000	0.00000000000000	0.00000000000000	0.00000000000000	0.00000000000000	0.00000000000000	0.00000000000000	20.74185400000000	0.00000000000000	0.00000000000000	0.00000000000000	0.00000000000000	
21.61658300000000	-7.98025100000000	736.07308799999998	39.53099300000000	0.24451100000000	0.00000000000000	0.10196400000000	0.00000000000000	0.00000000000000	0.00000000000000	0.00000000000000	0.00000000000000	0.00000000000000	0.00000000000000	20.87207400000000	0.00000000000000	0.00000000000000	0.00000000000000	0.00000000000000	
21.61824400000000	-8.37644400000000	738.07118300000002	39.60630900000000	0.24422200000000	0.00000000000000	0.10195500000000	0.00000000000000	0.00000000000000	0.00000000000000	0.00000000000000	0.00000000000000	0.00000000000000	0.00000000000000	21.00190100000000	0.00000000000000	0.00000000000000	0.00000000000000	0.00000000000000	
21.61991500000000	-8.77776700000000	740.07352800000001	39.68180400000000	0.24389900000000	0.00000000000000	0.10194800000000	0.00000000000000	0.00000000000000	0.00000000000000	0.00000000000000	0.00000000000000	0.00000000000000	0.00000000000000	21.13124100000000	0.00000000000000	0.00000000000000	0.00000000000000	0.00000000000000	
21.62158000000000	-9.18428100000000	742.07848000000001	39.75755600000000	0.24353900000000	0.00000000000000	0.10194100000000	0.00000000000000	0.00000000000000	0.00000000000000	0.00000000000000	0.00000000000000	0.00000000000000	0.00000000000000	21.26000900000000	0.00000000000000	0.00000000000000	0.00000000000000	0.00000000000000	
21.62324600000000	-9.59601100000000	744.08447100000001	39.83366100000000	0.24314200000000	0.00000000000000	0.10193700000000	0.00000000000000	0.00000000000000	0.00000000000000	0.00000000000000	0.00000000000000	0.00000000000000	0.00000000000000	21.38812700000000	0.00000000000000	0.00000000000000	0.00000000000000	0.00000000000000	
21.62491800000000	-10.01294400000000	746.09000500000002	39.91022700000000	0.24270600000000	0.00000000000000	0.10193400000000	0.00000000000000	0.00000000000000	0.00000000000000	0.00000000000000	0.00000000000000	0.00000000000000	0.00000000000000	21.51552300000000	0.00000000000000	0.00000000000000	0.00000000000000	0.00000000000000	
